<svg width="1063" height="212" viewBox="0 0 1063 212" fill="none" xmlns="http://www.w3.org/2000/svg">
<path d="M321.927 207V197.2H327.848V198.264H323.099V201.554H327.463V202.618H323.099V207H321.927ZM338.628 207.196C337.898 207.196 337.263 207.066 336.722 206.805C336.181 206.544 335.761 206.155 335.461 205.639C335.161 205.123 335.011 204.485 335.011 203.725V197.2H336.183V203.741C336.183 204.537 336.396 205.136 336.823 205.538C337.25 205.94 337.852 206.14 338.628 206.14C339.405 206.14 340.006 205.94 340.433 205.538C340.86 205.136 341.073 204.537 341.073 203.741V197.2H342.246V203.725C342.246 204.485 342.097 205.123 341.8 205.639C341.504 206.155 341.083 206.544 340.539 206.805C339.995 207.066 339.358 207.196 338.628 207.196ZM350.011 207V197.2H351.183V205.936H356.14V207H350.011ZM363.255 207V197.2H364.427V205.936H369.384V207H363.255ZM388.582 207.196C387.865 207.196 387.228 207.069 386.669 206.815C386.11 206.561 385.671 206.18 385.351 205.673C385.031 205.165 384.871 204.531 384.871 203.768V203.466H386.035V203.768C386.035 204.582 386.271 205.185 386.745 205.578C387.218 205.972 387.83 206.168 388.582 206.168C389.342 206.168 389.924 205.998 390.326 205.656C390.728 205.315 390.929 204.878 390.929 204.347C390.929 203.99 390.839 203.703 390.658 203.486C390.478 203.268 390.224 203.092 389.897 202.958C389.57 202.824 389.186 202.704 388.746 202.598L388.017 202.418C387.444 202.276 386.939 202.096 386.501 201.881C386.064 201.666 385.722 201.383 385.475 201.033C385.228 200.683 385.105 200.232 385.105 199.681C385.105 199.13 385.244 198.654 385.522 198.252C385.8 197.851 386.186 197.543 386.681 197.327C387.176 197.112 387.753 197.004 388.414 197.004C389.074 197.004 389.667 197.118 390.193 197.346C390.719 197.574 391.135 197.911 391.441 198.355C391.747 198.8 391.9 199.357 391.9 200.027V200.616H390.737V200.027C390.737 199.554 390.636 199.172 390.435 198.88C390.234 198.589 389.958 198.374 389.608 198.237C389.258 198.1 388.86 198.032 388.414 198.032C387.767 198.032 387.248 198.173 386.857 198.456C386.465 198.739 386.269 199.142 386.269 199.665C386.269 200.014 386.352 200.295 386.517 200.509C386.683 200.724 386.92 200.897 387.228 201.029C387.537 201.161 387.907 201.279 388.339 201.383L389.068 201.562C389.636 201.691 390.147 201.861 390.602 202.071C391.057 202.281 391.419 202.566 391.689 202.926C391.958 203.285 392.093 203.754 392.093 204.331C392.093 204.908 391.948 205.412 391.658 205.841C391.368 206.271 390.96 206.604 390.434 206.841C389.909 207.078 389.291 207.196 388.582 207.196ZM401.488 207V198.264H398.334V197.2H405.814V198.264H402.66V207H401.488ZM411.091 207L414.115 197.2H416.182L419.205 207H417.987L417.236 204.526H413.06L412.31 207H411.091ZM413.365 203.454H416.931L415.244 197.915H415.052L413.365 203.454ZM429.688 207.196C428.521 207.196 427.591 206.858 426.898 206.181C426.206 205.504 425.859 204.519 425.859 203.226V200.974C425.859 199.681 426.206 198.696 426.898 198.019C427.591 197.342 428.521 197.004 429.688 197.004C430.845 197.004 431.733 197.326 432.352 197.971C432.97 198.616 433.279 199.496 433.279 200.611V200.685H432.115V200.574C432.115 199.837 431.918 199.233 431.523 198.764C431.128 198.294 430.516 198.06 429.688 198.06C428.856 198.06 428.205 198.313 427.735 198.821C427.266 199.328 427.031 200.036 427.031 200.946V203.254C427.031 204.161 427.266 204.869 427.735 205.377C428.205 205.886 428.856 206.14 429.688 206.14C430.516 206.14 431.128 205.905 431.523 205.434C431.918 204.963 432.115 204.361 432.115 203.626V203.403H433.279V203.589C433.279 204.704 432.97 205.584 432.352 206.229C431.733 206.874 430.845 207.196 429.688 207.196ZM440.731 207V197.2H441.903V201.47H442.095L446.237 197.2H447.818L443.034 202.04L447.978 207H446.367L442.095 202.646H441.903V207H440.731ZM463.61 207V205.953H464.977V198.247H463.61V197.2H467.423C468.713 197.2 469.71 197.527 470.416 198.181C471.122 198.835 471.475 199.84 471.475 201.196V203.014C471.475 204.37 471.122 205.373 470.416 206.024C469.71 206.675 468.713 207 467.423 207H463.61ZM466.149 205.936H467.431C468.377 205.936 469.092 205.704 469.576 205.239C470.061 204.774 470.303 204.048 470.303 203.06V201.15C470.303 200.153 470.061 199.424 469.576 198.964C469.092 198.504 468.377 198.274 467.431 198.274H466.149V205.936ZM478.951 207V197.2H484.982V198.264H480.123V201.546H484.59V202.61H480.123V205.936H485.047V207H478.951ZM494.621 207L491.661 197.2H492.88L495.558 206.287H495.734L498.412 197.2H499.63L496.671 207H494.621ZM506.699 207V197.2H512.73V198.264H507.871V201.546H512.338V202.61H507.871V205.936H512.795V207H506.699ZM520.181 207V197.2H521.353V205.936H526.31V207H520.181ZM536.704 207.196C535.532 207.196 534.598 206.858 533.903 206.181C533.209 205.504 532.861 204.519 532.861 203.226V200.974C532.861 199.681 533.209 198.696 533.903 198.019C534.598 197.342 535.532 197.004 536.704 197.004C537.877 197.004 538.81 197.342 539.505 198.019C540.2 198.696 540.547 199.681 540.547 200.974V203.226C540.547 204.519 540.2 205.504 539.505 206.181C538.81 206.858 537.877 207.196 536.704 207.196ZM536.704 206.14C537.554 206.14 538.212 205.887 538.677 205.379C539.143 204.872 539.375 204.166 539.375 203.262V200.938C539.375 200.034 539.143 199.328 538.677 198.821C538.212 198.313 537.554 198.06 536.704 198.06C535.864 198.06 535.209 198.313 534.738 198.821C534.268 199.328 534.033 200.034 534.033 200.938V203.262C534.033 204.166 534.268 204.872 534.738 205.379C535.209 205.887 535.864 206.14 536.704 206.14ZM548.111 207V197.2H551.855C552.444 197.2 552.971 197.314 553.436 197.541C553.901 197.769 554.268 198.093 554.537 198.515C554.806 198.936 554.941 199.445 554.941 200.041V200.217C554.941 200.811 554.803 201.32 554.528 201.746C554.253 202.173 553.882 202.498 553.418 202.722C552.953 202.946 552.432 203.058 551.855 203.058H549.283V207H548.111ZM549.283 201.994H551.732C552.356 201.994 552.852 201.837 553.219 201.521C553.585 201.206 553.769 200.765 553.769 200.199V200.059C553.769 199.487 553.589 199.044 553.229 198.732C552.868 198.42 552.37 198.264 551.732 198.264H549.283V201.994ZM562.125 207V197.2H568.156V198.264H563.297V201.546H567.764V202.61H563.297V205.936H568.221V207H562.125ZM575.607 207V197.2H579.565C580.174 197.2 580.709 197.304 581.17 197.512C581.63 197.72 581.992 198.018 582.254 198.407C582.515 198.796 582.646 199.263 582.646 199.808V199.956C582.646 200.597 582.493 201.105 582.187 201.479C581.88 201.853 581.515 202.107 581.091 202.242V202.434C581.431 202.446 581.711 202.556 581.929 202.765C582.148 202.973 582.257 203.286 582.257 203.705V207H581.085V203.851C581.085 203.574 581.01 203.359 580.86 203.206C580.711 203.053 580.48 202.976 580.17 202.976H576.779V207H575.607ZM576.779 201.912H579.448C580.092 201.912 580.591 201.757 580.944 201.446C581.298 201.135 581.474 200.697 581.474 200.133V200.043C581.474 199.479 581.302 199.041 580.956 198.73C580.611 198.419 580.108 198.264 579.448 198.264H576.779V201.912ZM590.688 207.196C590.413 207.196 590.185 207.107 590.004 206.928C589.824 206.75 589.734 206.522 589.734 206.243C589.734 205.964 589.824 205.736 590.004 205.558C590.185 205.38 590.413 205.291 590.688 205.291C590.963 205.291 591.19 205.381 591.37 205.559C591.549 205.737 591.638 205.966 591.638 206.245C591.638 206.523 591.549 206.752 591.37 206.929C591.19 207.107 590.963 207.196 590.688 207.196ZM606.965 207L609.989 197.2H612.056L615.079 207H613.861L613.11 204.526H608.934L608.184 207H606.965ZM609.239 203.454H612.805L611.118 197.915H610.926L609.239 203.454ZM622.157 207V197.2H623.329V207H622.157ZM640.371 207V197.2H646.402V198.264H641.543V201.546H646.01V202.61H641.543V205.936H646.467V207H640.371ZM653.853 207V197.2H656.134L659.541 206.257H659.734V197.2H660.898V207H658.616L655.209 197.933H655.017V207H653.853ZM672.157 207.196C671.432 207.196 670.791 207.044 670.235 206.741C669.679 206.438 669.245 205.991 668.933 205.401C668.621 204.811 668.465 204.086 668.465 203.226V200.974C668.465 199.681 668.812 198.696 669.504 198.019C670.197 197.342 671.127 197.004 672.294 197.004C673.451 197.004 674.333 197.322 674.938 197.958C675.543 198.594 675.845 199.445 675.845 200.51V200.576H674.681V200.474C674.681 200.01 674.597 199.596 674.43 199.233C674.262 198.87 674.002 198.584 673.649 198.374C673.297 198.164 672.845 198.06 672.294 198.06C671.462 198.06 670.811 198.313 670.341 198.821C669.872 199.328 669.637 200.036 669.637 200.946V203.254C669.637 204.161 669.872 204.87 670.341 205.381C670.811 205.893 671.464 206.149 672.302 206.149C673.126 206.149 673.732 205.915 674.12 205.448C674.507 204.98 674.701 204.36 674.701 203.587V203.347H671.731V202.336H675.845V207H674.773V205.943H674.581C674.483 206.148 674.34 206.347 674.152 206.541C673.964 206.735 673.711 206.893 673.391 207.014C673.072 207.135 672.661 207.196 672.157 207.196ZM683.589 207V197.2H684.761V207H683.589ZM692.605 207V197.2H694.886L698.293 206.257H698.486V197.2H699.65V207H697.368L693.961 197.933H693.769V207H692.605ZM707.501 207V197.2H713.532V198.264H708.673V201.546H713.14V202.61H708.673V205.936H713.597V207H707.501ZM720.983 207V197.2H727.014V198.264H722.155V201.546H726.622V202.61H722.155V205.936H727.079V207H720.983ZM734.465 207V197.2H738.423C739.032 197.2 739.567 197.304 740.028 197.512C740.488 197.72 740.85 198.018 741.112 198.407C741.373 198.796 741.504 199.263 741.504 199.808V199.956C741.504 200.597 741.351 201.105 741.045 201.479C740.738 201.853 740.373 202.107 739.949 202.242V202.434C740.289 202.446 740.569 202.556 740.787 202.765C741.006 202.973 741.115 203.286 741.115 203.705V207H739.943V203.851C739.943 203.574 739.868 203.359 739.718 203.206C739.569 203.053 739.338 202.976 739.028 202.976H735.637V207H734.465ZM735.637 201.912H738.306C738.95 201.912 739.449 201.757 739.802 201.446C740.156 201.135 740.332 200.697 740.332 200.133V200.043C740.332 199.479 740.16 199.041 739.814 198.73C739.469 198.419 738.966 198.264 738.306 198.264H735.637V201.912Z" fill="#CCC3D8" fill-opacity="0.6"/>
<g opacity="0.9">
<path d="M915.591 31.26H941.703L904.839 169.5H878.727L915.591 31.26ZM994.119 155.484L977.991 139.356L1009.48 109.02L977.991 78.684L994.119 62.556L1040.58 109.02L994.119 155.484Z" fill="white"/>
</g>
<path d="M221.037 169.5V31.26H265.773C266.861 31.26 269.101 31.292 272.493 31.356C275.885 31.42 279.149 31.644 282.285 32.028C293.421 33.372 302.861 37.244 310.605 43.644C318.349 50.044 324.237 58.172 328.269 68.028C332.301 77.884 334.317 88.668 334.317 100.38C334.317 112.092 332.301 122.876 328.269 132.732C324.237 142.588 318.349 150.716 310.605 157.116C302.861 163.516 293.421 167.388 282.285 168.732C279.149 169.116 275.885 169.34 272.493 169.404C269.101 169.468 266.861 169.5 265.773 169.5H221.037ZM247.533 144.924H265.773C267.501 144.924 269.837 144.876 272.781 144.78C275.725 144.684 278.381 144.412 280.749 143.964C286.765 142.748 291.677 139.932 295.485 135.516C299.293 131.1 302.109 125.788 303.933 119.58C305.757 113.372 306.669 106.972 306.669 100.38C306.669 93.468 305.725 86.908 303.837 80.7C301.949 74.492 299.085 69.244 295.245 64.956C291.405 60.668 286.573 57.948 280.749 56.796C278.381 56.284 275.725 55.996 272.781 55.932C269.837 55.868 267.501 55.836 265.773 55.836H247.533V144.924ZM354.477 51.42V28.38H380.589V51.42H354.477ZM354.477 169.5V65.82H380.589V169.5H354.477ZM475.245 169.5V120.54C475.245 118.172 475.117 115.148 474.861 111.468C474.605 107.788 473.805 104.092 472.461 100.38C471.117 96.668 468.925 93.564 465.885 91.068C462.845 88.572 458.541 87.324 452.973 87.324C450.733 87.324 448.333 87.676 445.773 88.38C443.213 89.084 440.813 90.444 438.573 92.46C436.333 94.476 434.493 97.436 433.053 101.34C431.613 105.244 430.893 110.428 430.893 116.892L415.917 109.788C415.917 101.596 417.581 93.916 420.909 86.748C424.237 79.58 429.245 73.788 435.933 69.372C442.621 64.956 451.053 62.748 461.229 62.748C469.357 62.748 475.981 64.124 481.101 66.876C486.221 69.628 490.205 73.116 493.053 77.34C495.901 81.564 497.933 85.964 499.149 90.54C500.365 95.116 501.101 99.292 501.357 103.068C501.613 106.844 501.741 109.596 501.741 111.324V169.5H475.245ZM404.397 169.5V65.82H427.629V100.188H430.893V169.5H404.397ZM568.173 172.38C557.549 172.38 548.189 170.092 540.093 165.516C531.997 160.94 525.661 154.636 521.085 146.604C516.509 138.572 514.221 129.372 514.221 119.004C514.221 107.676 516.461 97.82 520.941 89.436C525.421 81.052 531.597 74.54 539.469 69.9C547.341 65.26 556.397 62.94 566.637 62.94C577.517 62.94 586.765 65.5 594.381 70.62C601.997 75.74 607.629 82.94 611.277 92.22C614.925 101.5 616.205 112.412 615.117 124.956H589.293V115.356C589.293 104.796 587.613 97.196 584.253 92.556C580.893 87.916 575.405 85.596 567.789 85.596C558.893 85.596 552.349 88.3 548.157 93.708C543.965 99.116 541.869 107.1 541.869 117.66C541.869 127.324 543.965 134.796 548.157 140.076C552.349 145.356 558.509 147.996 566.637 147.996C571.757 147.996 576.141 146.876 579.789 144.636C583.437 142.396 586.221 139.164 588.141 134.94L614.253 142.428C610.349 151.9 604.189 159.26 595.773 164.508C587.357 169.756 578.157 172.38 568.173 172.38ZM533.805 124.956V105.564H602.541V124.956H533.805ZM672.429 172.38C659.373 172.38 648.829 169.42 640.797 163.5C632.765 157.58 627.885 149.212 626.157 138.396L652.845 134.364C653.933 139.228 656.349 143.036 660.093 145.788C663.837 148.54 668.589 149.916 674.349 149.916C679.085 149.916 682.733 149.004 685.293 147.18C687.853 145.356 689.133 142.812 689.133 139.548C689.133 137.5 688.621 135.852 687.597 134.604C686.573 133.356 684.285 132.124 680.733 130.908C677.181 129.692 671.661 128.092 664.173 126.108C655.725 123.932 648.973 121.5 643.917 118.812C638.861 116.124 635.213 112.908 632.973 109.164C630.733 105.42 629.613 100.892 629.613 95.58C629.613 88.924 631.309 83.148 634.701 78.252C638.093 73.356 642.877 69.58 649.053 66.924C655.229 64.268 662.509 62.94 670.893 62.94C679.021 62.94 686.221 64.188 692.493 66.684C698.765 69.18 703.837 72.732 707.709 77.34C711.581 81.948 713.965 87.388 714.861 93.66L688.173 98.46C687.725 94.62 686.061 91.58 683.181 89.34C680.301 87.1 676.397 85.788 671.469 85.404C666.669 85.084 662.813 85.724 659.901 87.324C656.989 88.924 655.533 91.228 655.533 94.236C655.533 96.028 656.157 97.532 657.405 98.748C658.653 99.964 661.245 101.212 665.181 102.492C669.117 103.772 675.117 105.436 683.181 107.484C691.053 109.532 697.373 111.916 702.141 114.636C706.909 117.356 710.381 120.62 712.557 124.428C714.733 128.236 715.821 132.828 715.821 138.204C715.821 148.828 711.981 157.18 704.301 163.26C696.621 169.34 685.997 172.38 672.429 172.38ZM802.797 169.5V120.54C802.797 118.172 802.669 115.148 802.413 111.468C802.157 107.788 801.357 104.092 800.013 100.38C798.669 96.668 796.477 93.564 793.437 91.068C790.397 88.572 786.093 87.324 780.525 87.324C778.285 87.324 775.885 87.676 773.325 88.38C770.765 89.084 768.365 90.444 766.125 92.46C763.885 94.476 762.045 97.436 760.605 101.34C759.165 105.244 758.445 110.428 758.445 116.892L743.469 109.788C743.469 101.596 745.133 93.916 748.461 86.748C751.789 79.58 756.797 73.788 763.485 69.372C770.173 64.956 778.605 62.748 788.781 62.748C796.909 62.748 803.533 64.124 808.653 66.876C813.773 69.628 817.757 73.116 820.605 77.34C823.453 81.564 825.485 85.964 826.701 90.54C827.917 95.116 828.653 99.292 828.909 103.068C829.165 106.844 829.293 109.596 829.293 111.324V169.5H802.797ZM731.949 169.5V31.26H755.181V102.3H758.445V169.5H731.949Z" fill="white"/>
<g filter="url(#filter0_d_2004_4)">
<rect x="128" y="77" width="40" height="38" rx="12.6667" fill="#7C3AED"/>
</g>
<g opacity="0.9">
<path d="M68.554 155.484L22.09 109.02L68.554 62.556L84.682 78.684L53.194 109.02L84.682 139.356L68.554 155.484Z" fill="white"/>
</g>
<defs>
<filter id="filter0_d_2004_4" x="113" y="62" width="70" height="68" filterUnits="userSpaceOnUse" color-interpolation-filters="sRGB">
<feFlood flood-opacity="0" result="BackgroundImageFix"/>
<feColorMatrix in="SourceAlpha" type="matrix" values="0 0 0 0 0 0 0 0 0 0 0 0 0 0 0 0 0 0 127 0" result="hardAlpha"/>
<feOffset/>
<feGaussianBlur stdDeviation="7.5"/>
<feComposite in2="hardAlpha" operator="out"/>
<feColorMatrix type="matrix" values="0 0 0 0 0.486275 0 0 0 0 0.227451 0 0 0 0 0.929412 0 0 0 0.4 0"/>
<feBlend mode="normal" in2="BackgroundImageFix" result="effect1_dropShadow_2004_4"/>
<feBlend mode="normal" in="SourceGraphic" in2="effect1_dropShadow_2004_4" result="shape"/>
</filter>
</defs>
</svg>
